<?xml version="1.0" standalone="no"?>
<!DOCTYPE svg PUBLIC "-//W3C//DTD SVG 20010904//EN"
 "http://www.w3.org/TR/2001/REC-SVG-20010904/DTD/svg10.dtd">
<svg version="1.0" xmlns="http://www.w3.org/2000/svg"
 width="320.000000pt" height="320.000000pt" viewBox="0 0 320.000000 320.000000"
 preserveAspectRatio="xMidYMid meet">

<g transform="translate(0.000000,320.000000) scale(0.100000,-0.100000)"
fill="#000000" stroke="none">
<path d="M312 1965 c-77 -22 -110 -41 -173 -104 -74 -74 -102 -145 -102 -256
0 -101 27 -175 89 -244 120 -133 297 -165 457 -83 210 109 264 380 113 565
-85 106 -253 159 -384 122z m198 -16 c57 -14 135 -65 174 -112 62 -76 81 -130
81 -232 0 -82 -3 -97 -33 -157 -38 -77 -92 -130 -171 -167 -49 -23 -69 -26
-156 -26 -95 0 -103 2 -163 34 -71 39 -128 98 -163 169 -20 40 -24 63 -24 147
0 90 3 105 28 155 82 160 250 234 427 189z"/>
<path d="M305 1920 c-76 -25 -126 -66 -159 -132 -31 -61 -35 -141 -10 -176 9
-13 13 -29 10 -37 -8 -21 -43 -19 -55 3 -8 14 -10 10 -11 -20 0 -22 13 -61 33
-100 39 -75 99 -121 183 -138 49 -10 59 -9 94 9 45 23 72 18 68 -13 -2 -14
-15 -25 -38 -34 -34 -12 -33 -12 20 -6 62 7 129 33 176 69 71 54 106 189 67
256 -16 27 -16 30 -1 45 15 15 18 14 39 -7 l22 -22 -6 48 c-16 111 -101 202
-213 225 -49 10 -59 9 -94 -9 -44 -23 -70 -19 -70 9 0 22 12 30 54 41 30 7 30
7 -9 7 -22 1 -67 -8 -100 -18z m75 -125 c19 -23 3 -64 -39 -107 -31 -31 -35
-38 -19 -38 11 0 27 14 39 35 20 33 38 43 52 28 4 -3 0 -17 -9 -30 -23 -35
-13 -45 22 -24 25 15 32 28 37 61 10 73 81 119 107 70 12 -23 -4 -63 -39 -94
-29 -26 -26 -36 8 -36 17 0 32 -4 36 -9 7 -13 -32 -34 -50 -28 -20 8 -52 -20
-65 -58 -20 -61 11 -115 66 -115 38 0 57 25 52 68 -2 20 -9 28 -27 30 -22 4
-23 1 -17 -32 5 -27 3 -36 -7 -36 -40 0 -51 69 -15 94 33 23 64 19 87 -10 50
-64 4 -154 -79 -154 -34 0 -48 6 -76 34 -28 28 -34 42 -34 75 0 49 22 96 51
112 11 6 19 13 16 15 -8 8 -97 -50 -97 -63 0 -7 -5 -35 -11 -63 -19 -90 -100
-140 -151 -93 -44 39 -7 109 86 164 35 21 43 29 24 25 -26 -6 -41 3 -99 57
-22 20 -25 60 -5 76 16 13 32 -1 21 -19 -3 -5 -2 -17 3 -26 7 -12 12 -6 26 30
26 67 77 96 106 61z"/>
<path d="M322 1750 c-24 -38 -27 -50 -13 -50 14 0 43 50 39 68 -3 13 -10 8
-26 -18z"/>
<path d="M517 1762 c-26 -28 -22 -52 4 -25 12 11 20 26 17 33 -2 7 -9 5 -21
-8z"/>
<path d="M280 1532 c-48 -47 -55 -85 -13 -80 28 3 56 39 68 91 10 38 -6 34
-55 -11z"/>
<path d="M2080 1605 c0 -113 2 -135 15 -135 13 0 15 22 15 135 0 113 -2 135
-15 135 -13 0 -15 -22 -15 -135z"/>
<path d="M2300 1605 c0 -105 3 -136 13 -133 7 3 13 29 15 68 3 72 13 90 48 90
31 0 44 -32 44 -106 0 -40 3 -54 13 -51 8 2 12 27 12 74 0 101 -27 128 -97 98
-14 -6 -17 1 -20 41 -2 27 -8 49 -15 52 -10 3 -13 -28 -13 -133z"/>
<path d="M961 1694 c-41 -34 -56 -87 -42 -140 14 -53 40 -75 95 -81 70 -8 96
13 96 78 l0 50 -47 -3 c-55 -3 -65 -21 -15 -26 31 -3 33 -6 30 -35 -3 -27 -8
-33 -32 -35 -51 -6 -76 6 -93 45 -38 92 31 168 121 133 21 -8 26 -6 26 5 0 18
-39 35 -80 35 -16 0 -42 -11 -59 -26z"/>
<path d="M1187 1707 c-15 -11 -17 -27 -15 -122 l3 -110 68 -3 c55 -2 67 0 67
13 0 12 -12 15 -55 15 l-55 0 0 40 c0 39 1 40 34 40 19 0 41 3 50 6 32 12 15
24 -35 24 l-50 0 3 38 3 37 53 3 c51 3 67 14 36 26 -27 10 -89 7 -107 -7z"/>
<path d="M1450 1595 c0 -104 2 -125 15 -125 12 0 15 13 15 55 l0 55 60 0 60 0
0 -56 c0 -40 3 -55 13 -51 17 5 17 239 0 244 -8 3 -13 -13 -15 -49 l-3 -53
-57 -3 -58 -3 0 56 c0 42 -3 55 -15 55 -13 0 -15 -21 -15 -125z"/>
<path d="M2180 1686 c0 -15 -7 -29 -15 -32 -8 -4 -15 -10 -15 -15 0 -5 7 -9
15 -9 12 0 15 -14 15 -69 0 -74 12 -95 51 -89 33 4 36 28 5 28 -25 0 -26 2
-26 65 0 58 2 65 20 65 11 0 20 5 20 10 0 6 -9 10 -19 10 -14 0 -21 8 -23 27
-4 36 -28 43 -28 9z"/>
<path d="M1705 1635 c-19 -18 -25 -35 -25 -70 0 -35 6 -52 25 -70 28 -29 80
-33 111 -11 26 20 12 31 -24 18 -35 -12 -75 4 -80 31 -3 15 5 17 57 17 l61 0
0 35 c0 69 -76 100 -125 50z m83 -17 c25 -25 13 -38 -33 -38 -48 0 -55 9 -29
34 18 19 45 21 62 4z"/>
<path d="M1895 1635 c-33 -32 -36 -114 -5 -145 22 -22 69 -27 87 -9 8 8 13 8
17 0 18 -29 26 -3 26 84 0 52 -4 95 -9 95 -5 0 -11 -5 -13 -11 -3 -9 -9 -9
-25 0 -32 17 -51 14 -78 -14z m83 -17 c7 -7 12 -33 12 -60 0 -37 -4 -50 -20
-58 -12 -6 -29 -8 -40 -5 -35 11 -46 86 -17 123 12 15 49 16 65 0z"/>
<path d="M2519 1631 c-33 -33 -38 -75 -14 -120 21 -41 72 -54 116 -31 29 16
24 33 -8 25 -63 -17 -93 2 -93 60 0 52 45 79 90 55 28 -15 35 6 8 24 -34 24
-66 19 -99 -13z"/>
<path d="M2695 1635 c-18 -17 -25 -35 -25 -64 0 -80 40 -117 101 -94 20 8 29
8 32 0 2 -6 9 -7 15 -3 16 9 16 172 1 182 -6 3 -15 1 -19 -6 -6 -9 -13 -9 -28
-1 -31 17 -51 13 -77 -14z m89 -27 c22 -31 20 -74 -4 -98 -24 -24 -29 -24 -58
-4 -24 17 -30 70 -12 105 14 26 55 24 74 -3z"/>
<path d="M2884 1647 c-10 -27 1 -170 14 -175 9 -3 12 13 12 58 0 77 12 100 50
100 17 0 30 5 30 10 0 18 -32 24 -53 10 -15 -9 -22 -10 -25 -1 -5 15 -21 14
-28 -2z"/>
<path d="M3054 1648 c-27 -13 -44 -49 -44 -94 0 -65 72 -105 131 -74 34 19 21
30 -27 23 -39 -5 -49 -3 -60 12 -22 30 -17 34 49 37 l62 3 -2 35 c-3 57 -54
85 -109 58z m70 -34 c26 -26 18 -34 -34 -34 -54 0 -59 4 -33 32 20 22 46 23
67 2z"/>
</g>
</svg>
