<?xml version="1.0" standalone="no"?>
<!DOCTYPE svg PUBLIC "-//W3C//DTD SVG 20010904//EN"
 "http://www.w3.org/TR/2001/REC-SVG-20010904/DTD/svg10.dtd">
<svg version="1.0" xmlns="http://www.w3.org/2000/svg"
 width="500.000000pt" height="250.000000pt" viewBox="0 0 500.000000 250.000000"
 preserveAspectRatio="xMidYMid meet">

<g transform="translate(0.000000,250.000000) scale(0.100000,-0.100000)"
fill="#000000" stroke="none">
<path d="M0 1250 l0 -1250 2500 0 2500 0 0 1250 0 1250 -2500 0 -2500 0 0
-1250z m1030 662 c344 -123 535 -447 466 -792 -19 -95 -80 -230 -125 -278 -16
-18 -26 -32 -23 -32 3 0 -7 -13 -23 -30 -15 -16 -32 -27 -37 -24 -5 3 -7 2 -6
-3 2 -4 0 -9 -4 -11 -4 -2 -20 -15 -36 -31 -37 -33 -132 -85 -209 -112 -84
-30 -269 -37 -365 -15 -127 30 -228 87 -327 185 -72 70 -95 102 -129 171 -57
115 -76 194 -76 315 0 121 18 197 76 315 79 162 263 309 443 355 86 21 300 14
375 -13z m2495 -662 c0 -130 -3 -174 -12 -177 -10 -4 -13 36 -13 177 0 141 3
181 13 178 9 -4 12 -48 12 -178z m285 103 c0 -73 1 -75 18 -60 23 21 81 22
108 3 16 -12 20 -30 24 -104 6 -102 3 -125 -13 -119 -8 2 -14 40 -17 101 -4
71 -9 99 -20 106 -20 13 -40 12 -70 -3 -23 -12 -25 -19 -30 -106 -3 -63 -9
-96 -17 -99 -10 -3 -13 37 -13 177 0 154 2 181 15 181 12 0 15 -15 15 -77z
m-1606 28 c8 -7 12 -19 9 -27 -5 -13 -8 -13 -23 1 -22 20 -108 20 -137 0 -52
-37 -57 -210 -7 -229 9 -3 13 -9 11 -14 -6 -9 97 -15 123 -7 17 5 20 15 20 61
l0 54 -36 0 c-21 0 -34 4 -32 11 2 6 7 10 11 10 4 -1 27 -1 52 -1 l45 0 0 -70
c0 -80 -7 -87 -89 -97 -97 -11 -151 27 -171 120 -17 82 13 159 75 196 25 15
128 9 149 -8z m296 4 c0 -12 -15 -15 -75 -15 l-75 0 0 -55 0 -54 67 -3 c42 -2
68 -8 71 -15 3 -10 -15 -13 -67 -13 l-71 0 0 -65 0 -65 76 0 c56 0 75 -3 72
-12 -3 -9 -33 -14 -91 -16 l-87 -3 0 166 0 165 90 0 c73 0 90 -3 90 -15z m210
-60 l0 -75 90 0 90 0 0 75 c0 61 3 75 15 75 13 0 15 -22 13 -160 -2 -96 -7
-161 -13 -163 -6 -1 -11 29 -13 71 l-3 72 -89 0 -90 0 0 -69 c0 -63 -11 -93
-28 -77 -8 9 -15 273 -7 303 3 13 12 23 20 23 12 0 15 -15 15 -75z m940 12 c0
-32 1 -33 34 -29 18 2 37 -1 40 -7 8 -12 -37 -26 -59 -17 -14 5 -15 -7 -13
-87 l3 -92 33 -3 c40 -4 38 -26 -2 -30 -52 -6 -66 20 -66 120 0 81 -2 88 -20
88 -11 0 -20 7 -20 15 0 8 9 15 20 15 16 0 20 7 20 30 0 20 5 30 15 30 10 0
15 -10 15 -33z m-502 -45 c23 -20 42 -62 42 -93 0 -17 -8 -19 -85 -19 -53 0
-85 -4 -85 -10 0 -6 7 -25 16 -42 16 -30 17 -31 75 -25 60 5 75 -4 40 -23 -45
-24 -129 -2 -151 39 -5 11 -10 45 -10 76 0 49 4 60 29 86 35 35 95 40 129 11z
m248 -7 c23 -23 25 -30 22 -117 -2 -58 -7 -93 -15 -95 -6 -2 -13 3 -15 11 -3
14 -7 14 -28 3 -53 -27 -104 -15 -120 29 -12 31 4 68 37 83 33 15 93 14 93 -1
1 -9 4 -8 9 2 5 8 7 28 4 43 -7 37 -45 53 -92 38 -41 -12 -54 -5 -27 15 33 24
103 18 132 -11z m786 11 c25 -18 12 -26 -24 -14 -76 27 -127 -68 -82 -154 15
-29 18 -30 70 -26 56 5 69 -3 35 -22 -43 -22 -119 -1 -141 39 -5 11 -10 44
-10 74 0 47 4 60 29 86 23 24 37 31 68 31 21 0 46 -7 55 -14z m233 -12 c21
-28 21 -200 0 -208 -9 -3 -15 0 -15 10 0 15 -2 15 -25 0 -55 -36 -125 -9 -125
48 0 18 6 40 13 50 17 24 105 35 117 15 13 -20 24 14 16 46 -9 35 -48 49 -93
34 -41 -13 -56 -4 -28 18 29 21 120 13 140 -13z m125 10 c0 -14 2 -14 22 0 29
20 68 21 68 1 0 -10 -10 -15 -33 -15 -51 0 -57 -13 -57 -118 0 -70 -3 -93 -12
-90 -9 3 -14 39 -16 121 -2 100 0 117 13 117 8 0 15 -7 15 -16z m293 -10 c22
-25 34 -54 36 -86 1 -16 -9 -18 -84 -18 -75 0 -85 -2 -85 -18 0 -10 7 -28 16
-41 15 -21 22 -23 76 -18 42 4 58 2 55 -6 -2 -7 -11 -11 -20 -11 -9 1 -14 -2
-11 -7 10 -17 -71 -9 -103 11 -38 23 -69 111 -46 134 4 3 8 13 9 21 1 9 13 26
26 40 33 35 99 35 131 -1z"/>
<path d="M690 1905 c-98 -18 -221 -80 -300 -151 -83 -74 -102 -97 -150 -186
-76 -142 -99 -309 -63 -461 10 -40 18 -76 18 -82 0 -5 2 -12 5 -15 3 -3 19
-30 34 -61 15 -31 48 -81 72 -110 24 -30 44 -56 44 -59 0 -3 14 -14 30 -24 17
-9 27 -22 24 -28 -4 -6 -2 -8 3 -5 6 4 21 -2 34 -12 39 -30 120 -68 199 -92
96 -30 262 -32 355 -5 62 19 168 68 195 91 8 7 22 10 30 7 8 -2 13 -2 10 1 -3
4 27 40 66 81 124 128 185 280 185 461 0 121 -17 192 -73 303 -51 102 -153
213 -247 266 -140 81 -315 111 -471 81z m152 -45 c-93 -10 -142 -68 -96 -114
23 -24 54 -19 98 14 35 26 48 30 106 30 215 0 402 -150 463 -371 9 -29 18 -88
22 -129 l6 -75 -20 55 c-26 73 -56 94 -102 70 -24 -14 -25 -59 -1 -91 44 -59
53 -130 28 -224 -45 -170 -150 -285 -317 -346 -68 -25 -103 -32 -184 -34 -79
-3 -88 -2 -45 4 69 10 98 25 106 55 9 39 1 60 -28 70 -22 8 -34 5 -66 -17 -57
-40 -96 -48 -170 -37 -121 20 -230 76 -300 155 -75 85 -133 244 -131 359 l1
61 9 -44 c11 -58 45 -94 79 -86 14 4 29 10 34 15 16 16 9 55 -17 93 -36 53
-42 107 -22 197 26 113 126 279 161 266 8 -3 13 0 11 6 -6 32 213 126 268 116
13 -3 22 -1 19 3 -3 5 30 8 73 8 l78 -2 -63 -7z m-625 -532 c-3 -8 -6 -5 -6 6
-1 11 2 17 5 13 3 -3 4 -12 1 -19z"/>
<path d="M657 1611 c-16 -10 -39 -34 -52 -53 -25 -37 -57 -133 -48 -142 4 -3
2 -6 -4 -6 -22 0 -35 30 -31 77 3 42 1 48 -17 48 -51 0 -59 -121 -10 -162 14
-13 35 -23 46 -23 10 0 19 -6 19 -14 0 -7 11 -25 25 -41 26 -27 60 -31 108
-10 12 5 16 3 12 -6 -3 -8 -35 -30 -72 -49 -80 -43 -161 -113 -179 -157 -55
-130 46 -223 174 -162 76 37 117 122 137 279 6 44 8 46 88 97 45 28 86 49 91
45 5 -3 -1 -13 -15 -21 -133 -86 -145 -299 -22 -384 126 -87 303 0 303 150 0
77 -57 144 -122 146 -95 3 -157 -80 -117 -156 16 -29 28 -37 62 -37 31 0 37
26 13 63 -31 49 28 93 67 50 58 -65 6 -183 -80 -183 -119 0 -176 157 -98 269
32 48 43 53 120 60 53 5 60 9 63 28 4 28 -33 45 -77 37 -21 -5 -30 -2 -35 12
-5 13 4 27 36 55 55 46 92 118 83 159 -13 59 -84 68 -140 19 -43 -38 -64 -85
-68 -150 -3 -48 -19 -79 -42 -79 -8 0 -15 -3 -17 -7 -1 -5 -22 -21 -46 -36
l-43 -28 7 28 c4 15 15 37 26 49 10 12 21 38 25 58 5 33 4 36 -19 36 -29 0
-48 -19 -74 -73 -21 -44 -63 -73 -89 -63 -15 5 -9 13 30 49 70 60 105 120 105
177 0 25 -5 51 -12 58 -18 18 -79 14 -111 -7z m63 -56 c0 -23 -29 -75 -41 -75
-6 0 -8 -4 -5 -9 5 -8 -15 -30 -42 -45 -28 -17 12 88 49 125 23 23 39 25 39 4z
m340 -4 c0 -10 -15 -37 -32 -59 -34 -43 -55 -54 -43 -24 6 15 12 37 14 53 2
10 42 49 51 49 6 0 10 -9 10 -19z m-366 -388 c-28 -115 -87 -203 -137 -203
-55 0 -61 70 -9 126 43 47 100 86 113 78 7 -4 9 -3 5 4 -5 9 6 19 27 21 4 1 4
-11 1 -26z"/>
<path d="M3045 1265 c-14 -13 -25 -33 -25 -45 0 -18 6 -20 63 -20 35 0 66 3
70 6 10 10 -14 64 -33 74 -29 16 -49 12 -75 -15z"/>
<path d="M3300 1178 c-16 -9 -26 -24 -28 -41 -7 -57 86 -55 115 3 7 14 9 28 5
32 -15 15 -68 18 -92 6z"/>
<path d="M4296 1181 c2 -2 -1 -10 -7 -17 -16 -20 -3 -61 22 -67 24 -6 70 8 81
26 4 7 8 22 8 35 0 16 -6 22 -22 24 -52 3 -86 3 -82 -1z"/>
<path d="M4720 1270 c-11 -11 -20 -31 -20 -45 0 -24 2 -25 65 -25 63 0 65 1
65 25 0 32 -33 65 -65 65 -14 0 -34 -9 -45 -20z"/>
</g>
</svg>
