<?xml version="1.0" standalone="no"?>
<!DOCTYPE svg PUBLIC "-//W3C//DTD SVG 20010904//EN"
 "http://www.w3.org/TR/2001/REC-SVG-20010904/DTD/svg10.dtd">
<svg version="1.0" xmlns="http://www.w3.org/2000/svg"
 width="1280.000000pt" height="640.000000pt" viewBox="0 0 1280.000000 640.000000"
 preserveAspectRatio="xMidYMid meet">

<g transform="translate(0.000000,640.000000) scale(0.100000,-0.100000)"
fill="#000000" stroke="none">
<path d="M6305 5575 c-247 -30 -491 -126 -685 -269 -90 -66 -238 -215 -308
-311 -125 -170 -216 -381 -259 -600 -26 -134 -23 -396 6 -532 123 -582 557
-1015 1139 -1135 87 -18 139 -22 282 -21 154 0 189 3 295 27 149 35 234 65
356 127 376 192 652 547 748 959 112 485 -31 983 -383 1336 -204 204 -408 320
-683 388 -178 45 -326 54 -508 31z m396 -71 c283 -47 536 -180 744 -388 214
-215 342 -465 391 -766 21 -126 14 -378 -15 -500 -64 -276 -191 -501 -393
-696 -193 -186 -406 -300 -668 -359 -99 -22 -373 -31 -480 -16 -449 66 -838
348 -1043 756 -162 325 -186 706 -66 1060 156 456 558 808 1029 900 115 22
116 22 266 24 88 0 176 -5 235 -15z"/>
<path d="M6330 5424 c-14 -2 -56 -9 -95 -15 -145 -24 -352 -108 -470 -193 -70
-50 -179 -160 -231 -233 -88 -122 -161 -313 -184 -484 -19 -135 3 -238 68
-324 50 -66 63 -104 51 -149 -26 -95 -158 -84 -216 19 -42 75 -51 192 -28 375
3 22 -1 15 -11 -20 -21 -77 -30 -339 -15 -438 68 -428 297 -739 645 -873 142
-55 230 -73 356 -73 130 0 159 10 261 85 66 48 113 55 156 23 63 -47 51 -139
-24 -188 -97 -64 -276 -72 -483 -21 -18 5 -21 4 -10 -3 72 -47 476 -65 635
-29 298 68 518 202 672 411 114 154 192 390 193 577 0 109 -16 162 -74 243
-55 77 -63 109 -42 159 24 58 97 73 159 33 38 -26 76 -105 88 -189 11 -72 7
-143 -16 -292 l-5 -30 10 30 c20 57 40 221 40 322 0 479 -257 891 -654 1048
-119 47 -252 76 -351 77 -114 1 -159 -12 -241 -68 -87 -60 -107 -67 -155 -54
-46 13 -69 42 -69 91 0 117 163 186 379 160 53 -6 107 -14 121 -18 14 -3 23
-3 20 0 -23 26 -388 57 -480 41z m10 -523 c41 -29 51 -59 47 -131 -9 -147
-146 -333 -301 -408 l-37 -18 21 -27 c26 -32 56 -34 109 -7 64 32 99 68 116
119 40 120 118 191 171 156 45 -29 28 -96 -49 -189 -34 -41 -41 -58 -45 -104
-4 -45 -2 -53 9 -47 72 41 270 169 280 181 8 9 12 38 10 75 -6 158 73 330 183
394 127 73 246 17 246 -115 0 -88 -43 -162 -158 -271 -52 -49 -98 -89 -103
-89 -15 0 -10 -26 11 -53 19 -24 23 -25 97 -20 102 7 153 -12 153 -55 0 -52
-29 -66 -149 -72 -108 -5 -127 -11 -189 -58 -153 -116 -178 -414 -46 -559 44
-47 122 -83 183 -83 136 0 230 100 231 243 0 118 -45 187 -124 187 -37 0 -48
-5 -70 -31 -34 -40 -33 -72 5 -131 22 -35 29 -55 25 -73 -13 -50 -77 -56 -132
-13 -58 46 -83 171 -48 241 27 53 75 96 131 117 163 61 315 -34 354 -219 34
-166 -52 -337 -210 -414 -62 -30 -73 -32 -171 -31 -92 0 -112 3 -163 26 -156
73 -247 226 -247 419 0 175 76 322 215 414 49 32 53 38 42 55 -16 27 -22 26
-76 -14 -25 -19 -102 -68 -171 -110 -69 -42 -128 -84 -132 -94 -4 -9 -7 -34
-7 -56 -2 -74 -32 -249 -55 -312 -50 -137 -143 -252 -244 -301 -74 -35 -195
-39 -257 -8 -86 43 -135 155 -114 258 34 160 162 286 443 436 64 35 116 68
116 74 0 7 3 23 7 37 6 24 5 24 -13 9 -33 -27 -73 -39 -130 -39 -83 0 -136 36
-168 111 -13 31 -21 37 -57 43 -65 10 -132 82 -149 159 -17 75 0 158 40 199
60 59 95 27 75 -67 -16 -78 -9 -118 25 -155 35 -38 50 -38 50 -2 0 51 39 182
72 245 47 88 132 171 194 191 57 18 118 13 154 -13z"/>
<path d="M6175 4767 c-24 -25 -57 -74 -74 -110 -31 -64 -65 -177 -56 -185 10
-11 86 53 130 108 88 113 120 221 67 228 -18 3 -35 -8 -67 -41z"/>
<path d="M6890 4770 c-41 -44 -76 -127 -86 -200 l-6 -45 71 72 c38 39 79 90
91 113 47 93 -1 134 -70 60z"/>
<path d="M6133 3983 c-184 -107 -291 -222 -309 -332 -13 -82 21 -131 91 -131
81 0 164 79 226 215 32 70 83 255 77 280 -2 12 -20 5 -85 -32z"/>
<path d="M5241 4514 c0 -11 3 -14 6 -6 3 7 2 16 -1 19 -3 4 -6 -2 -5 -13z"/>
<path d="M5231 4474 c0 -11 3 -14 6 -6 3 7 2 16 -1 19 -3 4 -6 -2 -5 -13z"/>
<path d="M7701 3783 c-1 -6 -4 -20 -7 -30 -5 -17 -5 -17 6 0 6 10 9 23 6 30
-3 9 -5 9 -5 0z"/>
<path d="M6625 1708 c-3 -13 -4 -178 -3 -368 l3 -345 38 -3 37 -3 0 370 0 371
-35 0 c-28 0 -36 -5 -40 -22z"/>
<path d="M7210 1359 l0 -370 38 3 37 3 3 190 3 190 30 24 c32 25 100 38 143
27 53 -13 61 -43 66 -246 l5 -185 38 -3 37 -3 0 178 c0 98 -5 194 -10 215 -30
105 -177 148 -271 79 -16 -12 -31 -21 -34 -21 -3 0 -5 65 -5 145 l0 145 -40 0
-40 0 0 -371z"/>
<path d="M3693 1680 c-121 -25 -208 -118 -233 -249 -40 -211 41 -391 196 -436
72 -21 169 -19 247 5 110 34 108 31 105 200 l-3 145 -114 3 c-63 1 -119 -2
-124 -7 -5 -5 -6 -18 -2 -30 5 -18 15 -21 83 -23 l77 -3 3 -101 3 -101 -28
-12 c-82 -34 -205 -30 -269 9 -96 60 -131 251 -74 404 48 127 182 168 322 98
l63 -31 17 22 c23 29 23 32 -9 55 -67 46 -180 69 -260 52z"/>
<path d="M4173 1673 c-10 -4 -13 -82 -13 -344 l0 -339 200 0 200 0 0 35 0 35
-160 0 -160 0 0 125 0 124 143 3 142 3 3 33 3 32 -145 0 -146 0 0 115 0 115
160 0 160 0 0 29 c0 17 -6 31 -16 35 -18 7 -353 6 -371 -1z"/>
<path d="M4922 1672 c-9 -7 -12 -82 -10 -343 l3 -334 38 -3 37 -3 0 155 0 156
183 0 182 0 0 -153 0 -152 38 -3 37 -3 0 340 c0 329 -1 340 -20 346 -10 3 -29
1 -40 -5 -20 -11 -21 -18 -18 -156 l3 -144 -182 0 -183 0 0 149 c0 127 -2 150
-16 155 -21 8 -36 7 -52 -2z"/>
<path d="M6879 1618 c0 -2 -1 -32 -2 -68 l-2 -65 -42 -3 c-38 -3 -43 -6 -43
-27 0 -21 5 -24 43 -27 49 -4 45 18 46 -222 l1 -158 34 -34 c30 -30 41 -34 84
-34 90 0 130 26 103 69 -7 11 -15 11 -43 1 -45 -17 -82 -7 -96 25 -8 17 -12
86 -12 190 l0 165 80 0 c78 0 80 1 80 25 0 23 -3 24 -77 27 l-78 3 -3 68 -3
67 -34 0 c-19 0 -35 -1 -36 -2z"/>
<path d="M5717 1487 c-51 -16 -103 -60 -130 -110 -19 -35 -22 -57 -22 -142 0
-90 3 -104 27 -145 47 -80 118 -115 222 -108 58 3 136 33 143 54 1 5 -4 18
-12 28 -14 19 -16 19 -51 3 -98 -47 -199 -23 -234 55 -11 24 -20 53 -20 66 0
22 0 22 176 22 l177 0 -5 69 c-9 116 -62 185 -160 209 -55 14 -62 14 -111 -1z
m133 -75 c26 -19 53 -68 64 -114 l6 -28 -140 0 c-158 0 -156 -1 -124 80 33 82
125 111 194 62z"/>
<path d="M6210 1487 c-50 -13 -110 -43 -110 -55 0 -5 6 -17 14 -27 13 -18 15
-18 64 3 63 27 127 28 169 2 34 -20 46 -48 47 -110 1 -32 -1 -35 -24 -30 -58
12 -175 4 -212 -14 -105 -51 -104 -204 2 -259 26 -13 51 -17 97 -15 52 3 68 9
103 36 l40 33 0 -31 c0 -28 3 -30 35 -30 l35 0 0 193 c-1 161 -4 197 -18 224
-23 43 -61 70 -113 82 -54 13 -71 12 -129 -2z m164 -277 c22 -8 26 -16 26 -53
0 -34 -6 -49 -27 -69 -34 -32 -73 -48 -119 -48 -48 0 -73 15 -90 55 -19 46 -2
92 40 111 36 16 134 18 170 4z"/>
<path d="M7887 1487 c-56 -18 -106 -63 -133 -121 -48 -103 -25 -267 47 -333
62 -56 172 -70 249 -30 50 25 56 35 36 62 -14 19 -16 19 -44 2 -75 -43 -167
-25 -205 40 -39 67 -39 187 0 260 33 61 123 81 198 43 21 -11 39 -19 40 -17 1
1 8 13 15 26 11 22 10 27 -9 42 -21 17 -104 40 -139 38 -9 0 -34 -6 -55 -12z"/>
<path d="M8328 1489 c-47 -9 -118 -44 -118 -58 0 -4 6 -16 14 -26 13 -18 15
-18 64 3 30 13 71 22 102 22 67 0 104 -33 114 -103 9 -60 4 -68 -37 -56 -88
25 -189 4 -239 -50 -33 -35 -38 -47 -38 -88 0 -92 63 -153 157 -153 60 0 96
13 136 49 l27 25 0 -32 c0 -30 2 -32 36 -32 l35 0 -3 203 c-3 190 -4 204 -25
233 -40 56 -131 82 -225 63z m156 -279 c22 -8 26 -16 26 -51 0 -76 -84 -132
-175 -115 -41 8 -65 38 -65 82 0 48 9 65 44 80 36 16 134 18 170 4z"/>
<path d="M8913 1490 c-18 -4 -48 -19 -67 -34 -43 -32 -44 -32 -40 0 2 23 0 25
-34 22 l-37 -3 0 -240 0 -240 38 -3 37 -3 0 189 c0 185 0 189 24 211 29 27 88
44 127 36 25 -6 30 -3 39 21 6 15 7 31 3 35 -14 13 -57 18 -90 9z"/>
<path d="M9217 1486 c-93 -25 -148 -105 -155 -226 -5 -90 7 -142 48 -197 44
-59 88 -78 185 -78 60 0 90 5 119 20 46 23 52 34 32 60 -13 19 -14 19 -57 0
-54 -25 -132 -25 -177 -1 -35 18 -71 81 -72 124 0 22 0 22 175 22 l175 0 0 49
c0 164 -124 268 -273 227z m133 -74 c26 -19 53 -68 64 -114 l6 -28 -140 0
c-139 0 -140 0 -140 23 1 28 32 98 53 115 41 35 112 36 157 4z"/>
</g>
</svg>
