<?xml version="1.0" standalone="no"?>
<!DOCTYPE svg PUBLIC "-//W3C//DTD SVG 20010904//EN"
 "http://www.w3.org/TR/2001/REC-SVG-20010904/DTD/svg10.dtd">
<svg version="1.0" xmlns="http://www.w3.org/2000/svg"
 width="150.000000pt" height="150.000000pt" viewBox="0 0 150.000000 150.000000"
 preserveAspectRatio="xMidYMid meet">

<g transform="translate(0.000000,150.000000) scale(0.100000,-0.100000)"
fill="#000000" stroke="none">
<path d="M605 1450 c-60 -4 -120 -8 -133 -9 l-23 -1 3 -288 3 -287 33 -67 c97
-197 348 -245 515 -99 20 18 51 63 69 99 l33 66 3 287 3 287 -63 5 c-117 11
-333 15 -443 7z m-25 -85 c17 -21 -2 -65 -29 -65 -10 0 -21 -7 -25 -15 -12
-33 -26 -12 -26 40 l0 55 34 0 c18 0 39 -7 46 -15z m50 -5 c0 -11 7 -20 15
-20 9 0 15 9 15 21 0 14 5 19 16 17 22 -4 25 -103 3 -103 -8 0 -15 10 -17 23
-4 30 -20 28 -32 -4 -15 -38 -30 -19 -30 37 0 37 4 49 15 49 8 0 15 -9 15 -20z
m118 -32 c-2 -39 -7 -53 -18 -53 -11 0 -16 14 -18 53 -3 47 -1 52 18 52 19 0
21 -5 18 -52z m52 12 c0 -30 4 -40 16 -40 9 0 14 -6 12 -12 -3 -7 -16 -13 -29
-13 -22 0 -24 4 -27 53 -2 42 0 52 12 52 12 0 16 -11 16 -40z m68 -10 c-4 -67
-22 -69 -26 -2 -2 42 0 52 13 52 13 0 15 -10 13 -50z m110 34 c8 -15 10 -15
15 0 7 18 62 22 72 6 3 -5 -3 -10 -14 -10 -27 0 -27 -16 -1 -23 43 -11 14 -72
-31 -65 -33 5 -35 26 -2 31 27 4 27 5 6 12 -13 4 -23 11 -23 16 0 5 -4 9 -10
9 -5 0 -10 -6 -10 -14 0 -8 -10 -18 -22 -22 -13 -4 -28 -14 -34 -22 -19 -25
-34 -3 -34 49 l0 49 40 0 c25 0 42 -6 48 -16z m-71 -160 c56 -27 102 -73 133
-134 23 -45 22 -46 -40 -24 -66 23 -134 13 -242 -37 -98 -45 -188 -60 -241
-40 -30 12 -30 17 -2 87 13 30 15 31 54 24 23 -4 44 -10 47 -12 2 -3 8 -25 13
-49 6 -27 9 -35 10 -19 2 49 24 75 66 81 l40 6 -43 8 c-46 8 -62 29 -62 81 0
27 23 40 95 53 58 11 113 3 172 -25z m-277 -42 c0 -16 -6 -35 -12 -44 -16 -19
-78 -32 -78 -17 0 12 73 89 84 89 3 0 6 -13 6 -28z m408 -166 c44 -23 44 -51
0 -39 -18 4 -60 8 -94 8 -51 0 -75 -7 -155 -45 -84 -40 -102 -45 -164 -45 -77
0 -128 19 -133 49 -4 16 0 18 25 10 15 -5 60 -9 98 -9 59 0 81 5 140 34 39 19
86 40 105 48 43 17 135 11 178 -11z m24 -84 c13 -13 -18 -112 -34 -112 -6 0
-8 -3 -4 -7 7 -8 -73 -93 -87 -93 -14 0 0 72 15 82 7 4 23 8 36 8 12 0 22 5
22 10 0 6 -13 10 -29 10 -35 0 -39 5 -50 62 -6 31 -9 35 -10 16 -2 -53 -18
-78 -50 -78 -16 0 -33 -4 -36 -10 -4 -6 6 -10 22 -10 41 0 54 -12 60 -58 5
-38 3 -41 -28 -58 -54 -29 -170 -25 -234 8 -59 31 -105 77 -134 136 -24 47
-21 49 35 26 63 -26 144 -16 249 33 50 23 99 44 110 47 31 8 136 -1 147 -12z"/>
<path d="M530 1340 c0 -11 5 -20 10 -20 6 0 10 9 10 20 0 11 -4 20 -10 20 -5
0 -10 -9 -10 -20z"/>
<path d="M930 1339 c0 -11 5 -17 10 -14 6 3 10 13 10 21 0 8 -4 14 -10 14 -5
0 -10 -9 -10 -21z"/>
<path d="M700 1187 c0 -8 -6 -18 -12 -20 -9 -4 -10 -8 -2 -14 6 -4 13 -13 15
-18 2 -7 11 -4 20 5 14 15 14 19 -3 40 -13 16 -18 18 -18 7z"/>
<path d="M842 737 c-14 -17 9 -38 24 -23 8 8 7 15 -2 23 -9 9 -15 9 -22 0z"/>
<path d="M167 483 c-4 -3 -7 -51 -7 -105 l0 -98 30 0 c25 0 30 4 30 25 0 21 5
25 29 25 51 0 78 16 91 55 21 65 -24 105 -119 105 -26 0 -51 -3 -54 -7z m104
-33 c22 -12 26 -59 7 -78 -7 -7 -22 -12 -35 -12 -21 0 -23 4 -23 50 0 53 10
61 51 40z"/>
<path d="M387 483 c-4 -3 -7 -51 -7 -105 l0 -98 30 0 c28 0 30 2 30 40 l0 40
40 0 40 0 0 -40 c0 -38 2 -40 30 -40 l30 0 0 99 c0 103 -5 117 -40 106 -16 -5
-20 -15 -20 -51 l0 -44 -40 0 -40 0 0 50 c0 46 -2 50 -23 50 -13 0 -27 -3 -30
-7z"/>
<path d="M640 488 c-1 -2 -2 -49 -3 -106 l-2 -102 28 0 27 0 0 105 0 105 -25
0 c-14 0 -25 -1 -25 -2z"/>
<path d="M757 484 c-4 -4 -7 -52 -7 -106 l0 -99 57 3 c34 2 58 8 61 16 2 8 -7
12 -27 12 l-30 0 -3 88 c-3 79 -5 87 -23 90 -12 2 -24 0 -28 -4z"/>
<path d="M910 488 c-1 -2 -2 -49 -3 -106 l-2 -102 28 0 27 0 0 105 0 105 -25
0 c-14 0 -25 -1 -25 -2z"/>
<path d="M1020 386 l0 -106 30 0 c25 0 30 4 30 25 0 22 4 25 34 25 50 0 86 33
86 79 0 56 -26 75 -111 79 l-69 4 0 -106z m114 58 c33 -32 14 -84 -31 -84 -21
0 -23 4 -23 50 0 43 3 50 19 50 11 0 27 -7 35 -16z"/>
<path d="M1273 480 c-28 -11 -46 -45 -38 -71 4 -11 27 -30 53 -42 25 -12 47
-28 50 -35 6 -18 -37 -30 -75 -22 -28 7 -33 5 -33 -10 0 -42 129 -37 157 6 23
36 4 70 -52 94 -69 30 -59 57 18 51 23 -2 28 1 25 16 -4 21 -67 29 -105 13z"/>
<path d="M313 140 c0 -41 2 -60 4 -42 4 31 5 32 55 32 50 0 50 0 46 -30 -3
-16 -1 -30 4 -30 4 0 7 33 7 73 -1 52 -3 62 -8 37 -6 -34 -7 -35 -51 -35 -44
0 -45 1 -51 35 -4 23 -6 9 -6 -40z"/>
<path d="M673 140 c0 -41 2 -58 4 -37 2 20 2 54 0 75 -2 20 -4 3 -4 -38z"/>
<path d="M790 140 c0 -40 2 -71 6 -68 7 8 7 128 0 136 -3 3 -6 -28 -6 -68z"/>
<path d="M719 162 c-3 -20 4 -78 10 -84 3 -4 5 10 3 31 -3 32 0 40 15 43 16 3
15 5 -4 10 -13 3 -23 3 -24 0z"/>
<path d="M597 150 c19 -8 21 -14 16 -44 -4 -24 -2 -36 6 -36 15 0 14 63 -1 78
-7 7 -19 12 -27 11 -10 0 -8 -4 6 -9z"/>
<path d="M832 154 c11 -4 18 -19 21 -45 l4 -39 -1 42 c-1 35 -5 43 -21 45 -15
1 -15 0 -3 -3z"/>
<path d="M911 146 c-19 -23 -10 -70 14 -74 19 -4 19 -3 2 10 -27 20 -19 60 13
69 22 6 22 7 4 8 -12 1 -27 -5 -33 -13z"/>
<path d="M996 152 c-3 -5 6 -7 19 -4 24 4 25 2 22 -37 -2 -26 1 -41 8 -41 8 0
9 14 6 43 -5 33 -10 43 -28 45 -11 2 -24 -1 -27 -6z"/>
<path d="M1090 117 c0 -26 3 -47 8 -47 8 0 7 78 -2 87 -3 4 -6 -15 -6 -40z"/>
<path d="M1182 148 c-24 -24 -8 -79 23 -78 5 0 2 5 -7 11 -10 5 -18 21 -18 34
0 13 8 29 18 34 9 6 12 11 7 11 -6 0 -16 -5 -23 -12z"/>
<path d="M1231 143 c7 -12 15 -20 18 -17 3 2 -3 12 -13 22 -17 16 -18 16 -5
-5z"/>
<path d="M460 120 c0 -19 20 -50 32 -50 6 0 4 8 -5 18 -10 10 -14 21 -11 24 3
3 1 9 -5 13 -6 3 -11 1 -11 -5z"/>
<path d="M577 103 c-10 -9 -9 -33 1 -33 4 0 8 9 8 20 0 23 0 22 -9 13z"/>
<path d="M997 103 c-10 -9 -9 -33 1 -33 4 0 8 9 8 20 0 23 0 22 -9 13z"/>
<path d="M1228 73 c7 -3 16 -2 19 1 4 3 -2 6 -13 5 -11 0 -14 -3 -6 -6z"/>
</g>
</svg>
